<?xml version="1.0" encoding="utf-8"?>
<!-- Generator: Adobe Illustrator 19.0.0, SVG Export Plug-In . SVG Version: 6.00 Build 0)  -->
<svg version="1.1" id="Calque_1" xmlns="http://www.w3.org/2000/svg" xmlns:xlink="http://www.w3.org/1999/xlink" x="0px" y="0px"
	 viewBox="-244 350 94.3 94" style="enable-background:new -244 350 94.3 94;" xml:space="preserve">
<style type="text/css">
	.st0{fill:#262035;}
	.st1{fill:#007EFC;}
</style>
<title>icon</title>
<desc>Created with Sketch.</desc>
<g>
	<path class="st0" d="M-199.4,395.5h-43.8c-0.5,0-0.9-0.4-0.9-0.9v-43.8c0-0.5,0.4-0.9,0.9-0.9h43.8c0.5,0,0.9,0.4,0.9,0.9v43.8
		C-198.5,395.1-198.9,395.5-199.4,395.5z"/>
	<path class="st0" d="M-199.4,444h-43.8c-0.5,0-0.9-0.4-0.9-0.9v-43.8c0-0.5,0.4-0.9,0.9-0.9h43.8c0.5,0,0.9,0.4,0.9,0.9v43.8
		C-198.5,443.6-198.9,444-199.4,444z"/>
	<path class="st0" d="M-150.5,395.5h-43.8c-0.5,0-0.9-0.4-0.9-0.9v-43.8c0-0.5,0.4-0.9,0.9-0.9h43.8c0.5,0,0.9,0.4,0.9,0.9v43.8
		C-149.7,395.1-150.1,395.5-150.5,395.5z"/>
	<path class="st1" d="M-150.5,444h-43.8c-0.5,0-0.9-0.4-0.9-0.9v-43.8c0-0.5,0.4-0.9,0.9-0.9h43.8c0.5,0,0.9,0.4,0.9,0.9v43.8
		C-149.7,443.6-150.1,444-150.5,444z"/>
</g>
</svg>
